<?xml version="1.0" encoding="UTF-8" standalone="no"?>
<svg
   xmlns:dc="http://purl.org/dc/elements/1.1/"
   xmlns:cc="http://creativecommons.org/ns#"
   xmlns:rdf="http://www.w3.org/1999/02/22-rdf-syntax-ns#"
   xmlns:svg="http://www.w3.org/2000/svg"
   xmlns="http://www.w3.org/2000/svg"
   xmlns:sodipodi="http://sodipodi.sourceforge.net/DTD/sodipodi-0.dtd"
   xmlns:inkscape="http://www.inkscape.org/namespaces/inkscape"
   width="96.0px"
   height="96.0px"
   viewBox="0 0 96.0 96.0"
   version="1.1"
   id="SVGRoot"
   sodipodi:docname="clients.svg"
   inkscape:version="1.0.2 (e86c870879, 2021-01-15)">
  <defs
     id="defs2096">
    <inkscape:path-effect
       effect="bspline"
       id="path-effect2751"
       is_visible="true"
       lpeversion="1"
       weight="33.333333"
       steps="2"
       helper_size="0"
       apply_no_weight="true"
       apply_with_weight="true"
       only_selected="false" />
    <inkscape:path-effect
       effect="bspline"
       id="path-effect2739"
       is_visible="true"
       lpeversion="1"
       weight="33.333333"
       steps="2"
       helper_size="0"
       apply_no_weight="true"
       apply_with_weight="true"
       only_selected="false" />
    <inkscape:path-effect
       effect="bspline"
       id="path-effect2716"
       is_visible="true"
       lpeversion="1"
       weight="33.333333"
       steps="2"
       helper_size="0"
       apply_no_weight="true"
       apply_with_weight="true"
       only_selected="false" />
    <inkscape:path-effect
       effect="bspline"
       id="path-effect2710"
       is_visible="true"
       lpeversion="1"
       weight="33.333333"
       steps="2"
       helper_size="0"
       apply_no_weight="true"
       apply_with_weight="true"
       only_selected="false" />
    <inkscape:path-effect
       effect="bspline"
       id="path-effect2706"
       is_visible="true"
       lpeversion="1"
       weight="33.333333"
       steps="2"
       helper_size="0"
       apply_no_weight="true"
       apply_with_weight="true"
       only_selected="false" />
  </defs>
  <sodipodi:namedview
     id="base"
     pagecolor="#ffffff"
     bordercolor="#666666"
     borderopacity="1.0"
     inkscape:pageopacity="0.0"
     inkscape:pageshadow="2"
     inkscape:zoom="7.9195959"
     inkscape:cx="89.379926"
     inkscape:cy="52.651097"
     inkscape:document-units="px"
     inkscape:current-layer="layer1"
     inkscape:document-rotation="0"
     showgrid="true"
     inkscape:window-width="1579"
     inkscape:window-height="956"
     inkscape:window-x="340"
     inkscape:window-y="94"
     inkscape:window-maximized="0">
    <inkscape:grid
       type="xygrid"
       id="grid2667" />
  </sodipodi:namedview>
  <metadata
     id="metadata2099">
    <rdf:RDF>
      <cc:Work
         rdf:about="">
        <dc:format>image/svg+xml</dc:format>
        <dc:type
           rdf:resource="http://purl.org/dc/dcmitype/StillImage" />
        <dc:title></dc:title>
      </cc:Work>
    </rdf:RDF>
  </metadata>
  <g
     inkscape:label="Layer 1"
     inkscape:groupmode="layer"
     id="layer1">
    <rect
       style="fill:#ffffff;stroke:#000000;stroke-width:4;stroke-linecap:round;stroke-linejoin:round;stroke-miterlimit:4;stroke-dasharray:none;paint-order:fill markers stroke"
       id="rect2682"
       width="71"
       height="92"
       x="2"
       y="2"
       ry="8" />
    <rect
       style="fill:#ffffff;stroke:#000000;stroke-width:4;stroke-linecap:round;stroke-linejoin:round;stroke-miterlimit:4;stroke-dasharray:none;paint-order:fill markers stroke"
       id="rect2676"
       width="64"
       height="92"
       x="16"
       y="2"
       ry="2"
       rx="0" />
    <path
       style="fill:none;stroke:#000000;stroke-width:3.82971;stroke-linecap:round;stroke-linejoin:miter;stroke-miterlimit:4;stroke-dasharray:none;stroke-opacity:1"
       d="m 26,70 c 0,0 44,0 44,0"
       id="path2704"
       inkscape:path-effect="#path-effect2706"
       inkscape:original-d="M 26,70 H 70" />
    <path
       style="fill:none;stroke:#000000;stroke-width:4;stroke-linecap:butt;stroke-linejoin:miter;stroke-miterlimit:4;stroke-dasharray:none;stroke-opacity:1"
       d="m 26,70 c 1.999794,-5.332785 3.999795,-10.666119 7.666817,-14.66652 3.667023,-4.0004 9.00025,-6.667013 14.334036,-6.666587 5.333787,4.27e-4 10.667014,2.66704 14.333326,6.667396 C 66.000492,59.334645 68.000452,64.667872 70,70"
       id="path2708"
       inkscape:path-effect="#path-effect2710"
       inkscape:original-d="m 26,70 c 2.001,-5.332333 4.001,-10.665667 6,-16 5.33444,-2.66572 10.667667,-5.332333 16,-8 5.33444,2.66772 10.667667,5.334333 16,8 2.00104,5.33444 4.001,10.667667 6,16" />
    <circle
       style="fill:#ffffff;stroke:#000000;stroke-width:4;stroke-linecap:butt;stroke-linejoin:miter;stroke-miterlimit:4;stroke-dasharray:none;paint-order:fill markers stroke"
       id="path2712"
       cx="48"
       cy="38"
       r="11" />
    <path
       style="fill:none;stroke:#000000;stroke-width:4;stroke-linecap:butt;stroke-linejoin:miter;stroke-miterlimit:4;stroke-dasharray:none;stroke-opacity:1"
       d="m 80,80 c 1.667667,0 3.334333,0 4.667676,0 C 86.00102,80 87.001,80 87.5005,79.33382 88,78.66764 88,77.334333 88,76.000987 c 0,-1.333347 0,-2.666654 0,-4 0,-1.333347 0,-2.666654 0,-4.666681 C 88,65.33428 88,62.66772 87.50049,61.33386 87.00098,60 86.00102,60 84.66766,60 83.3343,60 81.667667,60 80,60"
       id="path2714"
       inkscape:path-effect="#path-effect2716"
       inkscape:original-d="m 80,80 c 1.667667,0.001 3.334333,0.001 5,0 1.00102,0.001 2.001,0.001 3,0 0.001,-1.33236 0.001,-2.665667 0,-4 0.001,-1.33236 0.001,-2.665667 0,-4 0.001,-1.33236 0.001,-2.665667 0,-4 0.001,-2.66572 0.001,-5.33228 0,-8 -0.99902,10e-4 -1.99898,10e-4 -3,0 -1.6657,10e-4 -3.332333,10e-4 -5,0"
       sodipodi:nodetypes="ccccccccc" />
    <path
       style="fill:none;stroke:#000000;stroke-width:4;stroke-linecap:butt;stroke-linejoin:miter;stroke-miterlimit:4;stroke-dasharray:none;stroke-opacity:1"
       d="m 80,36 c 1.667667,0 3.3343,0 4.66766,0 1.33336,0 2.33332,0 2.83283,-0.66618 C 88,34.66764 88,33.33436 88,31.33432 c 0,-2.00004 0,-4.666654 0,-6.666667 0,-2.000013 0,-3.33332 0,-4.666667 0,-1.333346 0,-2.666653 -0.49951,-3.33382 C 87.00098,16 86.001,16 84.66765,16 83.3343,16 81.667667,16 80,16"
       id="path2714-7"
       inkscape:path-effect="#path-effect2739"
       inkscape:original-d="m 80,36 c 1.667667,10e-4 3.3343,10e-4 5,0 1.00102,10e-4 2.00098,10e-4 3,0 0.001,-1.33236 0.001,-2.66564 0,-4 0.001,-2.66572 0.001,-5.332334 0,-8 0.001,-1.33236 0.001,-2.665667 0,-4 0.001,-1.33236 0.001,-2.665667 0,-4 -0.99902,0.001 -1.999,0.001 -3,0 -1.6657,0.001 -3.332333,0.001 -5,0"
       sodipodi:nodetypes="ccccccccc" />
    <path
       style="fill:none;stroke:#000000;stroke-width:4;stroke-linecap:butt;stroke-linejoin:miter;stroke-miterlimit:4;stroke-dasharray:none;stroke-opacity:1"
       d="m 80,60 c 1.667667,0 3.3343,0 4.66766,0 1.33336,0 2.33332,0 2.83283,-0.66618 C 88,58.66764 88,57.33436 88,55.33432 88,53.33428 88,50.667666 88,48.167643 88,45.66762 88,43.33438 88,41.33434 88,39.3343 88,37.6677 87.50049,36.83385 87.00098,36 86.00102,36 84.66766,36 83.3343,36 81.667667,36 80,36"
       id="path2714-4"
       inkscape:path-effect="#path-effect2751"
       inkscape:original-d="m 80,60 c 1.667667,10e-4 3.3343,10e-4 5,0 1.00102,10e-4 2.00098,10e-4 3,0 0.001,-1.33236 0.001,-2.66564 0,-4 0.001,-2.66572 0.001,-5.332334 0,-8 0.001,-2.33238 0.001,-4.66562 0,-7 0.001,-1.6657 0.001,-3.3323 0,-5 -0.99902,10e-4 -1.99898,10e-4 -3,0 -1.6657,10e-4 -3.332333,10e-4 -5,0"
       sodipodi:nodetypes="ccccccccc" />
  </g>
</svg>
